<svg width="184" height="40" viewBox="0 0 184 40" fill="none" xmlns="http://www.w3.org/2000/svg">
<path d="M3.23596 32V7.86H5.61596V18.604H9.25396L17.55 7.86H20.304L11.226 19.556L20.882 32H17.958L9.32196 20.78H5.61596V32H3.23596ZM50.1807 32.17C48.4807 32.17 46.9393 31.83 45.5567 31.15C44.174 30.47 42.984 29.552 41.9867 28.396C40.9893 27.2173 40.2187 25.9027 39.6747 24.452C39.1307 22.9787 38.8587 21.4713 38.8587 19.93C38.8587 18.3207 39.142 16.7907 39.7087 15.34C40.2753 13.8667 41.0687 12.5633 42.0887 11.43C43.1313 10.274 44.344 9.36733 45.7267 8.71C47.1093 8.03 48.6053 7.69 50.2147 7.69C51.9147 7.69 53.456 8.04133 54.8387 8.744C56.2213 9.44667 57.4 10.3873 58.3747 11.566C59.372 12.7447 60.1427 14.0593 60.6867 15.51C61.2307 16.9607 61.5027 18.4453 61.5027 19.964C61.5027 21.5733 61.2193 23.1147 60.6527 24.588C60.086 26.0387 59.2927 27.342 58.2727 28.498C57.2527 29.6313 56.0513 30.5267 54.6687 31.184C53.286 31.8413 51.79 32.17 50.1807 32.17ZM41.2387 19.93C41.2387 21.2447 41.454 22.514 41.8847 23.738C42.3153 24.9393 42.9273 26.016 43.7207 26.968C44.514 27.8973 45.4547 28.6453 46.5427 29.212C47.6533 29.756 48.866 30.028 50.1807 30.028C51.5633 30.028 52.7987 29.7447 53.8867 29.178C54.9973 28.5887 55.938 27.818 56.7087 26.866C57.502 25.8913 58.1027 24.8033 58.5107 23.602C58.9187 22.4007 59.1227 21.1767 59.1227 19.93C59.1227 18.6153 58.9073 17.3573 58.4767 16.156C58.046 14.9547 57.4227 13.878 56.6067 12.926C55.8133 11.974 54.8727 11.226 53.7847 10.682C52.6967 10.138 51.4953 9.866 50.1807 9.866C48.8207 9.866 47.5853 10.1493 46.4747 10.716C45.3867 11.2827 44.446 12.0533 43.6527 13.028C42.882 13.98 42.2813 15.0567 41.8507 16.258C41.4427 17.4593 41.2387 18.6833 41.2387 19.93ZM81.3919 19.76C81.3919 18.2867 81.6412 16.8473 82.1399 15.442C82.6612 14.014 83.4092 12.722 84.3839 11.566C85.3585 10.3873 86.5599 9.458 87.9879 8.778C89.4159 8.07533 91.0365 7.724 92.8499 7.724C95.0032 7.724 96.8392 8.22267 98.3579 9.22C99.8992 10.1947 101.033 11.4527 101.758 12.994L99.8879 14.15C99.3665 13.0847 98.7092 12.246 97.9159 11.634C97.1225 10.9993 96.2725 10.546 95.3659 10.274C94.4819 10.002 93.5979 9.866 92.7139 9.866C91.2632 9.866 89.9825 10.1607 88.8719 10.75C87.7612 11.3167 86.8205 12.0873 86.0499 13.062C85.3019 14.014 84.7352 15.0907 84.3499 16.292C83.9645 17.4707 83.7719 18.672 83.7719 19.896C83.7719 21.2333 83.9985 22.514 84.4519 23.738C84.9052 24.962 85.5399 26.05 86.3559 27.002C87.1719 27.9313 88.1239 28.6793 89.2119 29.246C90.3225 29.79 91.5239 30.062 92.8159 30.062C93.7225 30.062 94.6519 29.9033 95.6039 29.586C96.5559 29.2687 97.4399 28.7813 98.2559 28.124C99.0945 27.4667 99.7632 26.6167 100.262 25.574L102.234 26.594C101.735 27.7953 100.965 28.8153 99.9219 29.654C98.8792 30.4927 97.7119 31.1273 96.4199 31.558C95.1505 31.9887 93.9039 32.204 92.6799 32.204C91.0252 32.204 89.5065 31.8527 88.1239 31.15C86.7412 30.4247 85.5399 29.4727 84.5199 28.294C83.5225 27.0927 82.7519 25.7553 82.2079 24.282C81.6639 22.786 81.3919 21.2787 81.3919 19.76ZM140.368 9.968H131.766V32H129.386V9.968H120.784V7.86H140.368V9.968ZM161.12 32V7.86H163.466V28.736L178.426 7.86H180.636V32H178.29V11.498L163.5 32H161.12Z" fill="white"/>
<line x1="-3.53009e-10" y1="19.5" x2="184" y2="19.5" stroke="#FF2626" stroke-width="3"/>
</svg>
