<svg width="767" height="167" viewBox="0 0 767 167" fill="none" xmlns="http://www.w3.org/2000/svg">
<path d="M12.7796 134V33.18H22.7196V78.052H37.9136L72.5616 33.18H84.0636L46.1496 82.028L86.4776 134H74.2656L38.1976 87.14H22.7196V134H12.7796ZM208.843 134.71C201.743 134.71 195.305 133.29 189.531 130.45C183.756 127.61 178.786 123.776 174.621 118.948C170.455 114.025 167.237 108.535 164.965 102.476C162.693 96.3226 161.557 90.0273 161.557 83.59C161.557 76.8686 162.74 70.4786 165.107 64.42C167.473 58.2666 170.787 52.8233 175.047 48.09C179.401 43.262 184.466 39.4753 190.241 36.73C196.015 33.89 202.263 32.47 208.985 32.47C216.085 32.47 222.522 33.9373 228.297 36.872C234.071 39.8066 238.994 43.7353 243.065 48.658C247.23 53.5806 250.449 59.0713 252.721 65.13C254.993 71.1886 256.129 77.3893 256.129 83.732C256.129 90.4533 254.945 96.8906 252.579 103.044C250.212 109.103 246.899 114.546 242.639 119.374C238.379 124.107 233.361 127.847 227.587 130.592C221.812 133.337 215.564 134.71 208.843 134.71ZM171.497 83.59C171.497 89.0806 172.396 94.382 174.195 99.494C175.993 104.511 178.549 109.008 181.863 112.984C185.176 116.865 189.105 119.989 193.649 122.356C198.287 124.628 203.352 125.764 208.843 125.764C214.617 125.764 219.777 124.581 224.321 122.214C228.959 119.753 232.888 116.534 236.107 112.558C239.42 108.487 241.929 103.943 243.633 98.926C245.337 93.9086 246.189 88.7966 246.189 83.59C246.189 78.0993 245.289 72.8453 243.491 67.828C241.692 62.8106 239.089 58.314 235.681 54.338C232.367 50.362 228.439 47.238 223.895 44.966C219.351 42.694 214.333 41.558 208.843 41.558C203.163 41.558 198.003 42.7413 193.365 45.108C188.821 47.4746 184.892 50.6933 181.579 54.764C178.36 58.74 175.851 63.2366 174.053 68.254C172.349 73.2713 171.497 78.3833 171.497 83.59ZM339.195 82.88C339.195 76.7266 340.237 70.7153 342.319 64.846C344.497 58.882 347.621 53.486 351.691 48.658C355.762 43.7353 360.779 39.854 366.743 37.014C372.707 34.0793 379.476 32.612 387.049 32.612C396.043 32.612 403.711 34.6946 410.053 38.86C416.491 42.9306 421.224 48.1846 424.253 54.622L416.443 59.45C414.266 55.0006 411.521 51.498 408.207 48.942C404.894 46.2913 401.344 44.398 397.557 43.262C393.865 42.126 390.173 41.558 386.481 41.558C380.423 41.558 375.074 42.7886 370.435 45.25C365.797 47.6166 361.868 50.8353 358.649 54.906C355.525 58.882 353.159 63.3786 351.549 68.396C349.94 73.3186 349.135 78.336 349.135 83.448C349.135 89.0333 350.082 94.382 351.975 99.494C353.869 104.606 356.519 109.15 359.927 113.126C363.335 117.007 367.311 120.131 371.855 122.498C376.494 124.77 381.511 125.906 386.907 125.906C390.694 125.906 394.575 125.243 398.551 123.918C402.527 122.593 406.219 120.557 409.627 117.812C413.13 115.067 415.923 111.517 418.005 107.162L426.241 111.422C424.159 116.439 420.94 120.699 416.585 124.202C412.231 127.705 407.355 130.355 401.959 132.154C396.658 133.953 391.451 134.852 386.339 134.852C379.429 134.852 373.086 133.385 367.311 130.45C361.537 127.421 356.519 123.445 352.259 118.522C348.094 113.505 344.875 107.919 342.603 101.766C340.331 95.518 339.195 89.2226 339.195 82.88ZM585.508 41.984H549.582V134H539.642V41.984H503.716V33.18H585.508V41.984ZM672.178 134V33.18H681.976V120.368L744.456 33.18H753.686V134H743.888V48.374L682.118 134H672.178Z" fill="white"/>
<line y1="83" x2="767" y2="83" stroke="#FF2626" stroke-width="10"/>
</svg>
