<svg width="40" height="40" viewBox="0 0 40 40" fill="none" xmlns="http://www.w3.org/2000/svg">
<mask id="mask0_234_99" style="mask-type:alpha" maskUnits="userSpaceOnUse" x="0" y="0" width="40" height="40">
<rect width="40" height="40" fill="#D9D9D9"/>
</mask>
<g mask="url(#mask0_234_99)">
<path d="M12.4165 34.5417C11.8054 34.5417 11.2915 34.3333 10.8748 33.9167C10.4582 33.5 10.2498 32.9861 10.2498 32.375C10.2498 31.7361 10.4582 31.2083 10.8748 30.7917C11.2915 30.375 11.8054 30.1667 12.4165 30.1667C13.0276 30.1667 13.5482 30.375 13.9782 30.7917C14.4093 31.2083 14.6248 31.7222 14.6248 32.3333C14.6248 32.9722 14.4093 33.5 13.9782 33.9167C13.5482 34.3333 13.0276 34.5417 12.4165 34.5417ZM27.5832 34.5417C26.9443 34.5417 26.4165 34.3333 25.9998 33.9167C25.5832 33.5 25.3748 32.9861 25.3748 32.375C25.3748 31.7361 25.5832 31.2083 25.9998 30.7917C26.4165 30.375 26.9304 30.1667 27.5415 30.1667C28.1804 30.1667 28.7082 30.375 29.1248 30.7917C29.5415 31.2083 29.7498 31.7222 29.7498 32.3333C29.7498 32.9722 29.5415 33.5 29.1248 33.9167C28.7082 34.3333 28.1943 34.5417 27.5832 34.5417ZM9.70817 8.91668L14.2915 18.5833H25.0832C25.3332 18.5833 25.5554 18.5206 25.7498 18.395C25.9443 18.2706 26.1109 18.0972 26.2498 17.875L30.5415 10.0833C30.7082 9.77779 30.7221 9.50668 30.5832 9.27001C30.4443 9.03445 30.2082 8.91668 29.8748 8.91668H9.70817ZM9.1665 7.87501H29.7498C30.4721 7.87501 31.0204 8.17334 31.3948 8.77001C31.7704 9.36779 31.7915 9.97223 31.4582 10.5833L27.1248 18.5C26.9304 18.8611 26.6526 19.1456 26.2915 19.3533C25.9304 19.5622 25.5554 19.6667 25.1665 19.6667H13.5415L11.4582 23.5417C11.2359 23.875 11.2293 24.2361 11.4382 24.625C11.6459 25.0139 11.9582 25.2083 12.3748 25.2083H29.7498V26.25H12.4165C11.5554 26.25 10.9165 25.8961 10.4998 25.1883C10.0832 24.4795 10.0693 23.7639 10.4582 23.0417L13.0415 18.5L6.9165 5.62501H4.0415V4.58334H7.62484L9.1665 7.87501Z" fill="white"/>
</g>
</svg>
